<mxfile host="app.diagrams.net" agent="Mozilla/5.0 (Windows NT 10.0; Win64; x64) AppleWebKit/537.36 (KHTML, like Gecko) Chrome/137.0.0.0 Safari/537.36" version="26.2.14">
  <diagram id="C5RBs43oDa-KdzZeNtuy" name="Page-1">
    <mxGraphModel grid="1" page="1" gridSize="10" guides="1" tooltips="1" connect="1" arrows="1" fold="1" pageScale="1" pageWidth="827" pageHeight="1169" math="0" shadow="0">
      <root>
        <mxCell id="WIyWlLk6GJQsqaUBKTNV-0" />
        <mxCell id="WIyWlLk6GJQsqaUBKTNV-1" parent="WIyWlLk6GJQsqaUBKTNV-0" />
        <mxCell id="XK2SPPsWQjiUjOWUV0yP-3" value="" style="edgeStyle=none;curved=1;rounded=0;orthogonalLoop=1;jettySize=auto;html=1;fontSize=12;startSize=8;endSize=8;sketch=1;curveFitting=1;jiggle=2;labelBackgroundColor=none;strokeColor=#E07A5F;fontColor=default;" edge="1" parent="WIyWlLk6GJQsqaUBKTNV-1" source="XK2SPPsWQjiUjOWUV0yP-0" target="XK2SPPsWQjiUjOWUV0yP-2">
          <mxGeometry relative="1" as="geometry" />
        </mxCell>
        <mxCell id="XK2SPPsWQjiUjOWUV0yP-0" value="Start" style="ellipse;whiteSpace=wrap;html=1;sketch=1;curveFitting=1;jiggle=2;labelBackgroundColor=none;fillColor=#F2CC8F;strokeColor=#E07A5F;fontColor=#393C56;" vertex="1" parent="WIyWlLk6GJQsqaUBKTNV-1">
          <mxGeometry x="210" y="110" width="110" height="50" as="geometry" />
        </mxCell>
        <mxCell id="XK2SPPsWQjiUjOWUV0yP-5" value="" style="edgeStyle=none;curved=1;rounded=0;orthogonalLoop=1;jettySize=auto;html=1;fontSize=12;startSize=8;endSize=8;sketch=1;curveFitting=1;jiggle=2;labelBackgroundColor=none;strokeColor=#E07A5F;fontColor=default;" edge="1" parent="WIyWlLk6GJQsqaUBKTNV-1" source="XK2SPPsWQjiUjOWUV0yP-2" target="XK2SPPsWQjiUjOWUV0yP-4">
          <mxGeometry relative="1" as="geometry" />
        </mxCell>
        <mxCell id="XK2SPPsWQjiUjOWUV0yP-2" value="Visit Homepage" style="whiteSpace=wrap;html=1;sketch=1;curveFitting=1;jiggle=2;labelBackgroundColor=none;fillColor=#F2CC8F;strokeColor=#E07A5F;fontColor=#393C56;" vertex="1" parent="WIyWlLk6GJQsqaUBKTNV-1">
          <mxGeometry x="205" y="220" width="120" height="60" as="geometry" />
        </mxCell>
        <mxCell id="XK2SPPsWQjiUjOWUV0yP-7" value="" style="edgeStyle=none;curved=1;rounded=0;orthogonalLoop=1;jettySize=auto;html=1;fontSize=12;startSize=8;endSize=8;sketch=1;curveFitting=1;jiggle=2;labelBackgroundColor=none;strokeColor=#E07A5F;fontColor=default;" edge="1" parent="WIyWlLk6GJQsqaUBKTNV-1" source="XK2SPPsWQjiUjOWUV0yP-4" target="XK2SPPsWQjiUjOWUV0yP-6">
          <mxGeometry relative="1" as="geometry" />
        </mxCell>
        <mxCell id="XK2SPPsWQjiUjOWUV0yP-4" value="Click Sign Up or Login&lt;div&gt;(JWT Auth, Role select)&lt;/div&gt;" style="whiteSpace=wrap;html=1;sketch=1;curveFitting=1;jiggle=2;labelBackgroundColor=none;fillColor=#F2CC8F;strokeColor=#E07A5F;fontColor=#393C56;" vertex="1" parent="WIyWlLk6GJQsqaUBKTNV-1">
          <mxGeometry x="185" y="350" width="160" height="60" as="geometry" />
        </mxCell>
        <mxCell id="XK2SPPsWQjiUjOWUV0yP-16" value="" style="edgeStyle=none;curved=1;rounded=0;orthogonalLoop=1;jettySize=auto;html=1;fontSize=12;startSize=8;endSize=8;sketch=1;curveFitting=1;jiggle=2;labelBackgroundColor=none;strokeColor=#E07A5F;fontColor=default;" edge="1" parent="WIyWlLk6GJQsqaUBKTNV-1" source="XK2SPPsWQjiUjOWUV0yP-6" target="XK2SPPsWQjiUjOWUV0yP-12">
          <mxGeometry relative="1" as="geometry" />
        </mxCell>
        <mxCell id="XK2SPPsWQjiUjOWUV0yP-18" value="" style="edgeStyle=none;curved=1;rounded=0;orthogonalLoop=1;jettySize=auto;html=1;fontSize=12;startSize=8;endSize=8;sketch=1;curveFitting=1;jiggle=2;labelBackgroundColor=none;strokeColor=#E07A5F;fontColor=default;" edge="1" parent="WIyWlLk6GJQsqaUBKTNV-1" source="XK2SPPsWQjiUjOWUV0yP-6" target="XK2SPPsWQjiUjOWUV0yP-17">
          <mxGeometry relative="1" as="geometry" />
        </mxCell>
        <mxCell id="XK2SPPsWQjiUjOWUV0yP-6" value="Have account?" style="rhombus;whiteSpace=wrap;html=1;sketch=1;curveFitting=1;jiggle=2;labelBackgroundColor=none;fillColor=#F2CC8F;strokeColor=#E07A5F;fontColor=#393C56;" vertex="1" parent="WIyWlLk6GJQsqaUBKTNV-1">
          <mxGeometry x="190" y="450" width="150" height="80" as="geometry" />
        </mxCell>
        <mxCell id="XK2SPPsWQjiUjOWUV0yP-21" value="" style="edgeStyle=none;curved=1;rounded=0;orthogonalLoop=1;jettySize=auto;html=1;fontSize=12;startSize=8;endSize=8;sketch=1;curveFitting=1;jiggle=2;labelBackgroundColor=none;strokeColor=#E07A5F;fontColor=default;" edge="1" parent="WIyWlLk6GJQsqaUBKTNV-1" source="XK2SPPsWQjiUjOWUV0yP-12" target="XK2SPPsWQjiUjOWUV0yP-20">
          <mxGeometry relative="1" as="geometry" />
        </mxCell>
        <mxCell id="XK2SPPsWQjiUjOWUV0yP-12" value="Visit Login page&lt;div&gt;Enter credentials&lt;/div&gt;" style="whiteSpace=wrap;html=1;sketch=1;curveFitting=1;jiggle=2;labelBackgroundColor=none;fillColor=#F2CC8F;strokeColor=#E07A5F;fontColor=#393C56;" vertex="1" parent="WIyWlLk6GJQsqaUBKTNV-1">
          <mxGeometry x="210" y="620" width="120" height="60" as="geometry" />
        </mxCell>
        <mxCell id="XK2SPPsWQjiUjOWUV0yP-19" style="edgeStyle=none;curved=1;rounded=0;orthogonalLoop=1;jettySize=auto;html=1;fontSize=12;startSize=8;endSize=8;entryX=0;entryY=0.5;entryDx=0;entryDy=0;sketch=1;curveFitting=1;jiggle=2;labelBackgroundColor=none;strokeColor=#E07A5F;fontColor=default;" edge="1" parent="WIyWlLk6GJQsqaUBKTNV-1" source="XK2SPPsWQjiUjOWUV0yP-17" target="XK2SPPsWQjiUjOWUV0yP-12">
          <mxGeometry relative="1" as="geometry">
            <mxPoint x="160" y="640" as="targetPoint" />
            <Array as="points">
              <mxPoint x="-30" y="670" />
            </Array>
          </mxGeometry>
        </mxCell>
        <mxCell id="XK2SPPsWQjiUjOWUV0yP-17" value="Sign up&lt;div&gt;Set User Credentials&lt;/div&gt;" style="whiteSpace=wrap;html=1;sketch=1;curveFitting=1;jiggle=2;labelBackgroundColor=none;fillColor=#F2CC8F;strokeColor=#E07A5F;fontColor=#393C56;" vertex="1" parent="WIyWlLk6GJQsqaUBKTNV-1">
          <mxGeometry x="-65" y="460" width="120" height="60" as="geometry" />
        </mxCell>
        <mxCell id="XK2SPPsWQjiUjOWUV0yP-22" style="edgeStyle=none;curved=1;rounded=0;orthogonalLoop=1;jettySize=auto;html=1;fontSize=12;startSize=8;endSize=8;entryX=1;entryY=0.5;entryDx=0;entryDy=0;exitX=1;exitY=0.5;exitDx=0;exitDy=0;sketch=1;curveFitting=1;jiggle=2;labelBackgroundColor=none;strokeColor=#E07A5F;fontColor=default;" edge="1" parent="WIyWlLk6GJQsqaUBKTNV-1" source="XK2SPPsWQjiUjOWUV0yP-20" target="XK2SPPsWQjiUjOWUV0yP-12">
          <mxGeometry relative="1" as="geometry">
            <mxPoint x="510" y="770" as="targetPoint" />
            <Array as="points">
              <mxPoint x="430" y="780" />
              <mxPoint x="490" y="700" />
              <mxPoint x="420" y="640" />
            </Array>
          </mxGeometry>
        </mxCell>
        <mxCell id="XK2SPPsWQjiUjOWUV0yP-32" value="" style="edgeStyle=none;curved=1;rounded=0;orthogonalLoop=1;jettySize=auto;html=1;fontSize=12;startSize=8;endSize=8;sketch=1;curveFitting=1;jiggle=2;labelBackgroundColor=none;strokeColor=#E07A5F;fontColor=default;" edge="1" parent="WIyWlLk6GJQsqaUBKTNV-1" source="XK2SPPsWQjiUjOWUV0yP-20" target="XK2SPPsWQjiUjOWUV0yP-31">
          <mxGeometry relative="1" as="geometry" />
        </mxCell>
        <mxCell id="XK2SPPsWQjiUjOWUV0yP-20" value="Entered right&amp;nbsp;&lt;div&gt;credentials?&lt;/div&gt;" style="rhombus;whiteSpace=wrap;html=1;sketch=1;curveFitting=1;jiggle=2;labelBackgroundColor=none;fillColor=#F2CC8F;strokeColor=#E07A5F;fontColor=#393C56;" vertex="1" parent="WIyWlLk6GJQsqaUBKTNV-1">
          <mxGeometry x="200" y="730" width="150" height="80" as="geometry" />
        </mxCell>
        <mxCell id="XK2SPPsWQjiUjOWUV0yP-34" value="" style="edgeStyle=none;curved=1;rounded=0;orthogonalLoop=1;jettySize=auto;html=1;fontSize=12;startSize=8;endSize=8;sketch=1;curveFitting=1;jiggle=2;labelBackgroundColor=none;strokeColor=#E07A5F;fontColor=default;" edge="1" parent="WIyWlLk6GJQsqaUBKTNV-1" source="XK2SPPsWQjiUjOWUV0yP-31" target="XK2SPPsWQjiUjOWUV0yP-33">
          <mxGeometry relative="1" as="geometry" />
        </mxCell>
        <mxCell id="XK2SPPsWQjiUjOWUV0yP-38" value="" style="edgeStyle=none;curved=1;rounded=0;orthogonalLoop=1;jettySize=auto;html=1;fontSize=12;startSize=8;endSize=8;sketch=1;curveFitting=1;jiggle=2;labelBackgroundColor=none;strokeColor=#E07A5F;fontColor=default;" edge="1" parent="WIyWlLk6GJQsqaUBKTNV-1" source="XK2SPPsWQjiUjOWUV0yP-31" target="XK2SPPsWQjiUjOWUV0yP-37">
          <mxGeometry relative="1" as="geometry" />
        </mxCell>
        <mxCell id="XK2SPPsWQjiUjOWUV0yP-31" value="Check User&#39;s Role" style="rhombus;whiteSpace=wrap;html=1;sketch=1;curveFitting=1;jiggle=2;labelBackgroundColor=none;fillColor=#F2CC8F;strokeColor=#E07A5F;fontColor=#393C56;" vertex="1" parent="WIyWlLk6GJQsqaUBKTNV-1">
          <mxGeometry x="200" y="860" width="150" height="80" as="geometry" />
        </mxCell>
        <mxCell id="XK2SPPsWQjiUjOWUV0yP-36" value="" style="edgeStyle=none;curved=1;rounded=0;orthogonalLoop=1;jettySize=auto;html=1;fontSize=12;startSize=8;endSize=8;sketch=1;curveFitting=1;jiggle=2;labelBackgroundColor=none;strokeColor=#E07A5F;fontColor=default;" edge="1" parent="WIyWlLk6GJQsqaUBKTNV-1" source="XK2SPPsWQjiUjOWUV0yP-33" target="XK2SPPsWQjiUjOWUV0yP-35">
          <mxGeometry relative="1" as="geometry" />
        </mxCell>
        <mxCell id="XK2SPPsWQjiUjOWUV0yP-33" value="Profile setup&lt;div&gt;(Skills, Bio, Portfolio)&lt;/div&gt;" style="whiteSpace=wrap;html=1;sketch=1;curveFitting=1;jiggle=2;labelBackgroundColor=none;fillColor=#F2CC8F;strokeColor=#E07A5F;fontColor=#393C56;" vertex="1" parent="WIyWlLk6GJQsqaUBKTNV-1">
          <mxGeometry x="-55" y="870" width="120" height="60" as="geometry" />
        </mxCell>
        <mxCell id="XK2SPPsWQjiUjOWUV0yP-42" value="" style="edgeStyle=none;curved=1;rounded=0;orthogonalLoop=1;jettySize=auto;html=1;fontSize=12;startSize=8;endSize=8;sketch=1;curveFitting=1;jiggle=2;labelBackgroundColor=none;strokeColor=#E07A5F;fontColor=default;" edge="1" parent="WIyWlLk6GJQsqaUBKTNV-1" source="XK2SPPsWQjiUjOWUV0yP-35" target="XK2SPPsWQjiUjOWUV0yP-41">
          <mxGeometry relative="1" as="geometry" />
        </mxCell>
        <mxCell id="XK2SPPsWQjiUjOWUV0yP-35" value="Browse jobs and apply" style="whiteSpace=wrap;html=1;sketch=1;curveFitting=1;jiggle=2;labelBackgroundColor=none;fillColor=#F2CC8F;strokeColor=#E07A5F;fontColor=#393C56;" vertex="1" parent="WIyWlLk6GJQsqaUBKTNV-1">
          <mxGeometry x="-55" y="1050" width="120" height="60" as="geometry" />
        </mxCell>
        <mxCell id="XK2SPPsWQjiUjOWUV0yP-40" value="" style="edgeStyle=none;curved=1;rounded=0;orthogonalLoop=1;jettySize=auto;html=1;fontSize=12;startSize=8;endSize=8;sketch=1;curveFitting=1;jiggle=2;labelBackgroundColor=none;strokeColor=#E07A5F;fontColor=default;" edge="1" parent="WIyWlLk6GJQsqaUBKTNV-1" source="XK2SPPsWQjiUjOWUV0yP-37" target="XK2SPPsWQjiUjOWUV0yP-39">
          <mxGeometry relative="1" as="geometry" />
        </mxCell>
        <mxCell id="XK2SPPsWQjiUjOWUV0yP-37" value="Post Job&lt;div&gt;(Title, Budget, Description)&lt;/div&gt;" style="whiteSpace=wrap;html=1;sketch=1;curveFitting=1;jiggle=2;labelBackgroundColor=none;fillColor=#F2CC8F;strokeColor=#E07A5F;fontColor=#393C56;" vertex="1" parent="WIyWlLk6GJQsqaUBKTNV-1">
          <mxGeometry x="485" y="870" width="120" height="60" as="geometry" />
        </mxCell>
        <mxCell id="XK2SPPsWQjiUjOWUV0yP-44" value="" style="edgeStyle=none;curved=1;rounded=0;orthogonalLoop=1;jettySize=auto;html=1;fontSize=12;startSize=8;endSize=8;sketch=1;curveFitting=1;jiggle=2;labelBackgroundColor=none;strokeColor=#E07A5F;fontColor=default;" edge="1" parent="WIyWlLk6GJQsqaUBKTNV-1" source="XK2SPPsWQjiUjOWUV0yP-39" target="XK2SPPsWQjiUjOWUV0yP-43">
          <mxGeometry relative="1" as="geometry" />
        </mxCell>
        <mxCell id="XK2SPPsWQjiUjOWUV0yP-39" value="Job Board" style="whiteSpace=wrap;html=1;sketch=1;curveFitting=1;jiggle=2;labelBackgroundColor=none;fillColor=#F2CC8F;strokeColor=#E07A5F;fontColor=#393C56;" vertex="1" parent="WIyWlLk6GJQsqaUBKTNV-1">
          <mxGeometry x="485" y="970" width="120" height="60" as="geometry" />
        </mxCell>
        <mxCell id="XK2SPPsWQjiUjOWUV0yP-50" value="" style="edgeStyle=none;curved=1;rounded=0;orthogonalLoop=1;jettySize=auto;html=1;fontSize=12;startSize=8;endSize=8;sketch=1;curveFitting=1;jiggle=2;labelBackgroundColor=none;strokeColor=#E07A5F;fontColor=default;" edge="1" parent="WIyWlLk6GJQsqaUBKTNV-1" source="XK2SPPsWQjiUjOWUV0yP-41" target="XK2SPPsWQjiUjOWUV0yP-49">
          <mxGeometry relative="1" as="geometry">
            <Array as="points">
              <mxPoint x="20" y="1430" />
            </Array>
          </mxGeometry>
        </mxCell>
        <mxCell id="XK2SPPsWQjiUjOWUV0yP-41" value="Place Bid&lt;div&gt;Add Proposal&lt;/div&gt;" style="whiteSpace=wrap;html=1;sketch=1;curveFitting=1;jiggle=2;labelBackgroundColor=none;fillColor=#F2CC8F;strokeColor=#E07A5F;fontColor=#393C56;" vertex="1" parent="WIyWlLk6GJQsqaUBKTNV-1">
          <mxGeometry x="-55" y="1230" width="120" height="60" as="geometry" />
        </mxCell>
        <mxCell id="XK2SPPsWQjiUjOWUV0yP-48" value="" style="edgeStyle=none;curved=1;rounded=0;orthogonalLoop=1;jettySize=auto;html=1;fontSize=12;startSize=8;endSize=8;sketch=1;curveFitting=1;jiggle=2;labelBackgroundColor=none;strokeColor=#E07A5F;fontColor=default;" edge="1" parent="WIyWlLk6GJQsqaUBKTNV-1" source="XK2SPPsWQjiUjOWUV0yP-43" target="XK2SPPsWQjiUjOWUV0yP-47">
          <mxGeometry relative="1" as="geometry" />
        </mxCell>
        <mxCell id="XK2SPPsWQjiUjOWUV0yP-52" style="edgeStyle=none;curved=1;rounded=0;orthogonalLoop=1;jettySize=auto;html=1;entryX=1;entryY=0.5;entryDx=0;entryDy=0;fontSize=12;shape=link;sketch=1;curveFitting=1;jiggle=2;labelBackgroundColor=none;strokeColor=#E07A5F;fontColor=default;" edge="1" parent="WIyWlLk6GJQsqaUBKTNV-1" source="XK2SPPsWQjiUjOWUV0yP-43" target="XK2SPPsWQjiUjOWUV0yP-35">
          <mxGeometry relative="1" as="geometry" />
        </mxCell>
        <mxCell id="XK2SPPsWQjiUjOWUV0yP-43" value="View Freelancers&lt;div&gt;(Profiles)&lt;/div&gt;" style="whiteSpace=wrap;html=1;sketch=1;curveFitting=1;jiggle=2;labelBackgroundColor=none;fillColor=#F2CC8F;strokeColor=#E07A5F;fontColor=#393C56;" vertex="1" parent="WIyWlLk6GJQsqaUBKTNV-1">
          <mxGeometry x="480" y="1050" width="125" height="60" as="geometry" />
        </mxCell>
        <mxCell id="XK2SPPsWQjiUjOWUV0yP-51" style="edgeStyle=none;curved=1;rounded=0;orthogonalLoop=1;jettySize=auto;html=1;entryX=1;entryY=0.5;entryDx=0;entryDy=0;fontSize=12;startSize=8;endSize=8;sketch=1;curveFitting=1;jiggle=2;labelBackgroundColor=none;strokeColor=#E07A5F;fontColor=default;" edge="1" parent="WIyWlLk6GJQsqaUBKTNV-1" source="XK2SPPsWQjiUjOWUV0yP-47" target="XK2SPPsWQjiUjOWUV0yP-49">
          <mxGeometry relative="1" as="geometry">
            <Array as="points">
              <mxPoint x="540" y="1450" />
            </Array>
          </mxGeometry>
        </mxCell>
        <mxCell id="XK2SPPsWQjiUjOWUV0yP-47" value="Hire/&amp;nbsp;&lt;div&gt;Assign Job&lt;/div&gt;" style="whiteSpace=wrap;html=1;sketch=1;curveFitting=1;jiggle=2;labelBackgroundColor=none;fillColor=#F2CC8F;strokeColor=#E07A5F;fontColor=#393C56;" vertex="1" parent="WIyWlLk6GJQsqaUBKTNV-1">
          <mxGeometry x="482.5" y="1230" width="120" height="60" as="geometry" />
        </mxCell>
        <mxCell id="XK2SPPsWQjiUjOWUV0yP-57" value="" style="edgeStyle=none;curved=1;rounded=0;orthogonalLoop=1;jettySize=auto;html=1;fontSize=12;startSize=8;endSize=8;sketch=1;curveFitting=1;jiggle=2;labelBackgroundColor=none;strokeColor=#E07A5F;fontColor=default;" edge="1" parent="WIyWlLk6GJQsqaUBKTNV-1" source="XK2SPPsWQjiUjOWUV0yP-49" target="XK2SPPsWQjiUjOWUV0yP-56">
          <mxGeometry relative="1" as="geometry" />
        </mxCell>
        <mxCell id="XK2SPPsWQjiUjOWUV0yP-61" value="" style="edgeStyle=none;curved=1;rounded=0;orthogonalLoop=1;jettySize=auto;html=1;fontSize=12;startSize=8;endSize=8;sketch=1;curveFitting=1;jiggle=2;labelBackgroundColor=none;strokeColor=#E07A5F;fontColor=default;" edge="1" parent="WIyWlLk6GJQsqaUBKTNV-1" source="XK2SPPsWQjiUjOWUV0yP-49" target="XK2SPPsWQjiUjOWUV0yP-60">
          <mxGeometry relative="1" as="geometry" />
        </mxCell>
        <mxCell id="XK2SPPsWQjiUjOWUV0yP-49" value="Project Workspace&lt;div&gt;(Chat, File upload, Timeline, Status Update)&lt;/div&gt;" style="whiteSpace=wrap;html=1;sketch=1;curveFitting=1;jiggle=2;labelBackgroundColor=none;fillColor=#F2CC8F;strokeColor=#E07A5F;fontColor=#393C56;" vertex="1" parent="WIyWlLk6GJQsqaUBKTNV-1">
          <mxGeometry x="182.5" y="1420" width="185" height="60" as="geometry" />
        </mxCell>
        <mxCell id="XK2SPPsWQjiUjOWUV0yP-59" value="" style="edgeStyle=none;curved=1;rounded=0;orthogonalLoop=1;jettySize=auto;html=1;fontSize=12;startSize=8;endSize=8;sketch=1;curveFitting=1;jiggle=2;labelBackgroundColor=none;strokeColor=#E07A5F;fontColor=default;" edge="1" parent="WIyWlLk6GJQsqaUBKTNV-1" source="XK2SPPsWQjiUjOWUV0yP-56" target="XK2SPPsWQjiUjOWUV0yP-58">
          <mxGeometry relative="1" as="geometry" />
        </mxCell>
        <mxCell id="XK2SPPsWQjiUjOWUV0yP-56" value="Submit Work" style="whiteSpace=wrap;html=1;sketch=1;curveFitting=1;jiggle=2;labelBackgroundColor=none;fillColor=#F2CC8F;strokeColor=#E07A5F;fontColor=#393C56;" vertex="1" parent="WIyWlLk6GJQsqaUBKTNV-1">
          <mxGeometry x="-55" y="1620" width="120" height="60" as="geometry" />
        </mxCell>
        <mxCell id="XK2SPPsWQjiUjOWUV0yP-67" value="" style="edgeStyle=none;curved=1;rounded=0;orthogonalLoop=1;jettySize=auto;html=1;fontSize=12;startSize=8;endSize=8;sketch=1;curveFitting=1;jiggle=2;labelBackgroundColor=none;strokeColor=#E07A5F;fontColor=default;" edge="1" parent="WIyWlLk6GJQsqaUBKTNV-1" source="XK2SPPsWQjiUjOWUV0yP-58" target="XK2SPPsWQjiUjOWUV0yP-66">
          <mxGeometry relative="1" as="geometry" />
        </mxCell>
        <mxCell id="XK2SPPsWQjiUjOWUV0yP-58" value="Mark Done&lt;div&gt;Track Earnings&lt;/div&gt;" style="whiteSpace=wrap;html=1;sketch=1;curveFitting=1;jiggle=2;labelBackgroundColor=none;fillColor=#F2CC8F;strokeColor=#E07A5F;fontColor=#393C56;" vertex="1" parent="WIyWlLk6GJQsqaUBKTNV-1">
          <mxGeometry x="-55" y="1800" width="120" height="60" as="geometry" />
        </mxCell>
        <mxCell id="XK2SPPsWQjiUjOWUV0yP-63" value="" style="edgeStyle=none;curved=1;rounded=0;orthogonalLoop=1;jettySize=auto;html=1;fontSize=12;startSize=8;endSize=8;sketch=1;curveFitting=1;jiggle=2;labelBackgroundColor=none;strokeColor=#E07A5F;fontColor=default;" edge="1" parent="WIyWlLk6GJQsqaUBKTNV-1" source="XK2SPPsWQjiUjOWUV0yP-60" target="XK2SPPsWQjiUjOWUV0yP-62">
          <mxGeometry relative="1" as="geometry" />
        </mxCell>
        <mxCell id="XK2SPPsWQjiUjOWUV0yP-60" value="Review Work" style="whiteSpace=wrap;html=1;sketch=1;curveFitting=1;jiggle=2;labelBackgroundColor=none;fillColor=#F2CC8F;strokeColor=#E07A5F;fontColor=#393C56;" vertex="1" parent="WIyWlLk6GJQsqaUBKTNV-1">
          <mxGeometry x="450" y="1620" width="120" height="60" as="geometry" />
        </mxCell>
        <mxCell id="XK2SPPsWQjiUjOWUV0yP-65" value="" style="edgeStyle=none;curved=1;rounded=0;orthogonalLoop=1;jettySize=auto;html=1;fontSize=12;startSize=8;endSize=8;sketch=1;curveFitting=1;jiggle=2;labelBackgroundColor=none;strokeColor=#E07A5F;fontColor=default;" edge="1" parent="WIyWlLk6GJQsqaUBKTNV-1" source="XK2SPPsWQjiUjOWUV0yP-62" target="XK2SPPsWQjiUjOWUV0yP-64">
          <mxGeometry relative="1" as="geometry" />
        </mxCell>
        <mxCell id="XK2SPPsWQjiUjOWUV0yP-68" style="edgeStyle=none;curved=1;rounded=0;orthogonalLoop=1;jettySize=auto;html=1;entryX=1;entryY=0.5;entryDx=0;entryDy=0;fontSize=12;shape=link;sketch=1;curveFitting=1;jiggle=2;labelBackgroundColor=none;strokeColor=#E07A5F;fontColor=default;" edge="1" parent="WIyWlLk6GJQsqaUBKTNV-1" source="XK2SPPsWQjiUjOWUV0yP-62" target="XK2SPPsWQjiUjOWUV0yP-58">
          <mxGeometry relative="1" as="geometry" />
        </mxCell>
        <mxCell id="XK2SPPsWQjiUjOWUV0yP-62" value="Release Payment" style="whiteSpace=wrap;html=1;sketch=1;curveFitting=1;jiggle=2;labelBackgroundColor=none;fillColor=#F2CC8F;strokeColor=#E07A5F;fontColor=#393C56;" vertex="1" parent="WIyWlLk6GJQsqaUBKTNV-1">
          <mxGeometry x="450" y="1800" width="120" height="60" as="geometry" />
        </mxCell>
        <mxCell id="XK2SPPsWQjiUjOWUV0yP-64" value="Leave Review" style="whiteSpace=wrap;html=1;sketch=1;curveFitting=1;jiggle=2;labelBackgroundColor=none;fillColor=#F2CC8F;strokeColor=#E07A5F;fontColor=#393C56;" vertex="1" parent="WIyWlLk6GJQsqaUBKTNV-1">
          <mxGeometry x="450" y="1980" width="120" height="60" as="geometry" />
        </mxCell>
        <mxCell id="XK2SPPsWQjiUjOWUV0yP-66" value="Leave Review" style="whiteSpace=wrap;html=1;sketch=1;curveFitting=1;jiggle=2;labelBackgroundColor=none;fillColor=#F2CC8F;strokeColor=#E07A5F;fontColor=#393C56;" vertex="1" parent="WIyWlLk6GJQsqaUBKTNV-1">
          <mxGeometry x="-55" y="1980" width="120" height="60" as="geometry" />
        </mxCell>
        <mxCell id="XK2SPPsWQjiUjOWUV0yP-69" value="payments via stripe/Razorpay" style="text;html=1;align=center;verticalAlign=middle;resizable=0;points=[];autosize=1;strokeColor=none;fillColor=none;fontSize=16;sketch=1;curveFitting=1;jiggle=2;labelBackgroundColor=none;fontColor=#393C56;" vertex="1" parent="WIyWlLk6GJQsqaUBKTNV-1">
          <mxGeometry x="150" y="1790" width="230" height="30" as="geometry" />
        </mxCell>
        <mxCell id="XK2SPPsWQjiUjOWUV0yP-70" value="Real-time chat (websocket)" style="text;html=1;align=center;verticalAlign=middle;resizable=0;points=[];autosize=1;strokeColor=none;fillColor=none;fontSize=16;sketch=1;curveFitting=1;jiggle=2;labelBackgroundColor=none;fontColor=#393C56;" vertex="1" parent="WIyWlLk6GJQsqaUBKTNV-1">
          <mxGeometry x="160" y="1380" width="220" height="30" as="geometry" />
        </mxCell>
        <mxCell id="XK2SPPsWQjiUjOWUV0yP-71" value="Matchmaking" style="text;html=1;align=center;verticalAlign=middle;resizable=0;points=[];autosize=1;strokeColor=none;fillColor=none;fontSize=16;sketch=1;curveFitting=1;jiggle=2;labelBackgroundColor=none;fontColor=#393C56;" vertex="1" parent="WIyWlLk6GJQsqaUBKTNV-1">
          <mxGeometry x="210" y="1040" width="120" height="30" as="geometry" />
        </mxCell>
        <mxCell id="XK2SPPsWQjiUjOWUV0yP-72" value="Client" style="text;html=1;align=center;verticalAlign=middle;resizable=0;points=[];autosize=1;strokeColor=none;fillColor=none;fontSize=16;sketch=1;curveFitting=1;jiggle=2;labelBackgroundColor=none;fontColor=#393C56;" vertex="1" parent="WIyWlLk6GJQsqaUBKTNV-1">
          <mxGeometry x="380" y="870" width="60" height="30" as="geometry" />
        </mxCell>
        <mxCell id="XK2SPPsWQjiUjOWUV0yP-73" value="Freelancer" style="text;html=1;align=center;verticalAlign=middle;resizable=0;points=[];autosize=1;strokeColor=none;fillColor=none;fontSize=16;sketch=1;curveFitting=1;jiggle=2;labelBackgroundColor=none;fontColor=#393C56;" vertex="1" parent="WIyWlLk6GJQsqaUBKTNV-1">
          <mxGeometry x="90" y="870" width="100" height="30" as="geometry" />
        </mxCell>
        <mxCell id="XK2SPPsWQjiUjOWUV0yP-74" value="Yes" style="text;html=1;align=center;verticalAlign=middle;resizable=0;points=[];autosize=1;strokeColor=none;fillColor=none;fontSize=16;sketch=1;curveFitting=1;jiggle=2;labelBackgroundColor=none;fontColor=#393C56;" vertex="1" parent="WIyWlLk6GJQsqaUBKTNV-1">
          <mxGeometry x="280" y="810" width="50" height="30" as="geometry" />
        </mxCell>
        <mxCell id="XK2SPPsWQjiUjOWUV0yP-75" value="No" style="text;html=1;align=center;verticalAlign=middle;resizable=0;points=[];autosize=1;strokeColor=none;fillColor=none;fontSize=16;sketch=1;curveFitting=1;jiggle=2;labelBackgroundColor=none;fontColor=#393C56;" vertex="1" parent="WIyWlLk6GJQsqaUBKTNV-1">
          <mxGeometry x="360" y="740" width="40" height="30" as="geometry" />
        </mxCell>
        <mxCell id="XK2SPPsWQjiUjOWUV0yP-76" value="Yes" style="text;html=1;align=center;verticalAlign=middle;resizable=0;points=[];autosize=1;strokeColor=none;fillColor=none;fontSize=16;sketch=1;curveFitting=1;jiggle=2;labelBackgroundColor=none;fontColor=#393C56;" vertex="1" parent="WIyWlLk6GJQsqaUBKTNV-1">
          <mxGeometry x="260" y="560" width="50" height="30" as="geometry" />
        </mxCell>
        <mxCell id="XK2SPPsWQjiUjOWUV0yP-77" value="No" style="text;html=1;align=center;verticalAlign=middle;resizable=0;points=[];autosize=1;strokeColor=none;fillColor=none;fontSize=16;sketch=1;curveFitting=1;jiggle=2;labelBackgroundColor=none;fontColor=#393C56;" vertex="1" parent="WIyWlLk6GJQsqaUBKTNV-1">
          <mxGeometry x="120" y="460" width="40" height="30" as="geometry" />
        </mxCell>
      </root>
    </mxGraphModel>
  </diagram>
</mxfile>
